<?xml version="1.0" standalone="no"?><!DOCTYPE svg PUBLIC "-//W3C//DTD SVG 1.1//EN" "http://www.w3.org/Graphics/SVG/1.1/DTD/svg11.dtd"><svg t="1539228214006" class="icon" style="" viewBox="0 0 1024 1024" version="1.1" xmlns="http://www.w3.org/2000/svg" p-id="5680" xmlns:xlink="http://www.w3.org/1999/xlink" width="64" height="64"><defs><style type="text/css"></style></defs><path d="M1013.376 729.152c-1.6-200.128-102.848-375.296-251.52-469.312a9.984 9.984 0 0 0-5.632-3.52A464.832 464.832 0 0 0 540.8 187.072v-22.72a26.56 26.56 0 0 0-53.056 0v22.528a465.28 465.28 0 0 0-215.616 66.624 9.408 9.408 0 0 0-5.824 3.584v0.128C172.48 315.264 97.216 405.184 53.248 513.472c-0.448 0.512-0.896 0.96-1.152 1.6-0.32 0.768-0.32 1.536-0.512 2.304a584.448 584.448 0 0 0-41.024 209.984l-0.064 5.696 266.24 150.656c0.64 0.512 1.216 0.896 1.984 1.152l2.368 1.344 465.088-0.32 267.392-151.168-0.192-5.568z m-62.4-212.416l-248 108.224-54.592-271.68 105.536-75.52c86.208 55.232 155.456 138.88 197.056 238.976zM639.36 335.808L534.4 207.936a14.08 14.08 0 0 0 1.28-1.472 444.928 444.928 0 0 1 200.448 60.288L639.36 335.808zM509.632 216.96c1.472 0.192 3.008 0.448 4.672 0.448 0.768 0 1.6-0.192 2.432-0.256l100.352 122.112h-208L509.632 216.96z m-2.432-52.608a7.04 7.04 0 1 1 14.144 0v22.016c-3.136-0.064-6.272-0.192-9.472-0.192-1.536 0-3.136 0-4.672 0.128v-21.952z m-14.528 41.856l0.256 0.256-106.048 129.152-94.72-71.296a444.864 444.864 0 0 1 200.512-58.112zM274.048 275.2l103.68 77.824-54.144 269.952-249.536-108.864C116.416 413.504 186.88 329.92 274.048 275.2z m1.792 585.664L30.08 721.728a563.2 563.2 0 0 1 36.8-189.568l252.736 110.272-43.776 218.432z m91.52 5.76c2.304-184.064 67.456-337.856 144.576-337.856 77.056 0 142.336 153.664 144.576 337.728l-289.152 0.128z m308.672-0.128C673.664 665.216 602.56 509.248 512 509.248c-90.624 0-161.856 156.096-164.032 357.504h-53.504l102.016-508.032h233.216l102.08 507.712-55.744 0.064z m74.368-5.376l-43.456-216.768 251.072-109.44c22.016 58.368 34.624 121.984 35.904 188.608l-243.52 137.6z" fill="" p-id="5681"></path></svg>