<?xml version="1.0" standalone="no"?><!DOCTYPE svg PUBLIC "-//W3C//DTD SVG 1.1//EN" "http://www.w3.org/Graphics/SVG/1.1/DTD/svg11.dtd"><svg t="1539228172070" class="icon" style="" viewBox="0 0 1040 1024" version="1.1" xmlns="http://www.w3.org/2000/svg" p-id="4585" xmlns:xlink="http://www.w3.org/1999/xlink" width="65" height="64"><defs><style type="text/css"></style></defs><path d="M1028.612928 792.192c8.064 15.36 12.032 29.952 11.648 43.52-0.384 13.568-4.48 25.344-12.16 35.2-7.68 9.856-18.56 17.792-32.64 23.68s-30.336 8.832-48.64 8.832h-861.44c-19.968 0-36.352-3.712-49.28-11.008-12.928-7.296-22.4-16.768-28.288-28.16-5.888-11.392-8.448-24.192-7.68-38.528 0.768-14.336 4.736-28.8 12.16-43.52 10.368-19.84 21.504-41.088 33.792-63.872 12.16-22.784 38.912-40.704 51.328-64.256l39.68-69.12c12.544-23.552 10.624-51.2 20.224-73.6 26.368-61.568 45.952-155.904 121.856-151.68s27.008 268.672 101.76 273.92C455.812928 638.72 531.332928 123.776 657.796928 122.496 748.932928 121.6 765.956928 285.568 811.652928 368.64c19.968 35.2 12.672 133.76 33.28 171.52s61.568 64.768 81.92 101.12c20.352 36.352 35.456 27.776 53.632 61.184 18.048 33.408 34.048 63.232 48.128 89.728z m0 0" fill="" p-id="4586"></path></svg>