<?xml version="1.0" standalone="no"?><!DOCTYPE svg PUBLIC "-//W3C//DTD SVG 1.1//EN" "http://www.w3.org/Graphics/SVG/1.1/DTD/svg11.dtd"><svg t="1539228111085" class="icon" style="" viewBox="0 0 1024 1024" version="1.1" xmlns="http://www.w3.org/2000/svg" p-id="3150" xmlns:xlink="http://www.w3.org/1999/xlink" width="64" height="64"><defs><style type="text/css"></style></defs><path d="M365.714286 576l0-128q0-9.142857-9.142857-9.142857l-54.857143 0q-9.142857 0-9.142857 9.142857l0 128q0 9.142857 9.142857 9.142857l54.857143 0q9.142857 0 9.142857-9.142857zm292.571429 0l0-128q0-9.142857-9.142857-9.142857l-54.857143 0q-9.142857 0-9.142857 9.142857l0 128q0 9.142857 9.142857 9.142857l54.857143 0q9.142857 0 9.142857-9.142857zm292.571429 18.285714l0 429.714286-365.714286 0 0-182.857143q0-45.714286-32-77.714286t-77.714286-32-77.714286 32-32 77.714286l0 182.857143-365.714286 0 0-429.714286q0-9.142857 9.142857-9.142857l54.857143 0q9.142857 0 9.142857 9.142857l0 64 73.142857 0 0-356.571429q0-9.142857 9.142857-9.142857l54.857143 0q9.142857 0 9.142857 9.142857l0 64 73.142857 0 0-64q0-9.142857 9.142857-9.142857l54.857143 0q9.142857 0 9.142857 9.142857l0 64 73.142857 0 0-64q0-9.142857 9.142857-9.142857l9.142857 0 0-224.571429q-18.285714-10.857143-18.285714-31.428571 0-14.857143 10.857143-25.714286t25.714286-10.857143 25.714286 10.857143 10.857143 25.714286q0 20.571429-18.285714 31.428571l0 5.142857 155.428571 0q9.142857 0 9.142857 9.142857l0 128q0 9.142857-9.142857 9.142857l-155.428571 0 0 73.142857 9.142857 0q9.142857 0 9.142857 9.142857l0 64 73.142857 0 0-64q0-9.142857 9.142857-9.142857l54.857143 0q9.142857 0 9.142857 9.142857l0 64 73.142857 0 0-64q0-9.142857 9.142857-9.142857l54.857143 0q9.142857 0 9.142857 9.142857l0 356.571429 73.142857 0 0-64q0-9.142857 9.142857-9.142857l54.857143 0q9.142857 0 9.142857 9.142857z" p-id="3151"></path></svg>