<?xml version="1.0" standalone="no"?><!DOCTYPE svg PUBLIC "-//W3C//DTD SVG 1.1//EN" "http://www.w3.org/Graphics/SVG/1.1/DTD/svg11.dtd"><svg t="1539228192525" class="icon" style="" viewBox="0 0 1024 1024" version="1.1" xmlns="http://www.w3.org/2000/svg" p-id="4855" xmlns:xlink="http://www.w3.org/1999/xlink" width="64" height="64"><defs><style type="text/css"></style></defs><path d="M736.571386 264.668c-3.072683-1.972587-14.149515-7.435134-27.312736 4.893532l-4.855597 4.627992c-34.292658 32.585612-56.939468 54.094391-182.653924 11.797584a283.445506 283.445506 0 0 0-102.195154-15.097873 273.734311 273.734311 0 0 0-80.231163 15.515151c-44.459065 15.628955-70.747574 37.555012-71.847669 38.427503a14.415055 14.415055 0 0 0-2.541602 2.731273 15.401348 15.401348 0 0 0-5.91776 19.384456l194.64118 439.810921a15.477217 15.477217 0 0 0 28.336964-12.290731c-0.075869-0.037934-0.075869-0.113803-0.113803-0.189672l-90.169964-203.859228 1.47944-2.883011c20.484552-39.110321 43.662444-83.379714 162.890123-72.833963a126.928354 126.928354 0 0 0 66.992073-12.328666 173.739349 173.739349 0 0 0 51.970067-39.527599c25.264281-27.236867 47.569682-65.512632 61.112247-104.926428 5.159072-15.059939 8.573164-28.981848 9.900867-40.32422 1.251834-10.659554 1.593243-25.719493-9.483589-32.927021z m-32.927021 72.113211c-11.569979 30.119878-28.147292 58.570645-46.810995 80.079425-29.740535 34.330592-62.743424 50.149218-98.060309 47.000667-60.998444-5.386679-106.59554 2.389864-139.522561 23.784841-20.90183 13.580499-33.761577 30.802697-43.358969 47.076535l-83.986663-189.709713a233.941172 233.941172 0 0 1 58.836186-29.968141c52.463214-18.170556 106.709343-18.132622 161.145143 0.189672 64.488405 21.698452 110.199304 28.943913 143.809143 22.760613 25.074609-4.552123 42.069201-16.235904 56.863599-29.247388-2.389864 9.521523-5.31081 18.891309-8.914574 28.033489z" fill="" p-id="4856"></path></svg>